<svg width="178" height="44" viewBox="0 0 178 44" fill="none" xmlns="http://www.w3.org/2000/svg">
<path d="M109.901 18.6776C105.911 23.1771 106.671 29.8153 111.6 33.5044C113.248 34.7382 115.212 35.7179 117.189 35.7911L133.576 36.3979L129.617 21.7764C129.184 20.1745 127.543 18.3277 126.05 17.2102C121.121 13.5211 113.891 14.178 109.901 18.6776ZM115.07 22.5463C116.749 20.6531 119.792 20.3766 121.866 21.9288C123.939 23.4811 124.26 26.2751 122.581 28.1683C120.902 30.0615 117.859 30.338 115.785 28.7858C113.711 27.2335 113.391 24.4395 115.07 22.5463Z" fill="#3B65A1"/>
<path d="M127.571 27.1731C126.644 31.424 122.131 34.1586 117.492 33.281C112.853 32.4034 109.845 28.246 110.773 23.9952C111.701 19.7443 116.213 17.0098 120.852 17.8873C125.491 18.7649 128.499 22.9223 127.571 27.1731Z" fill="#EEF5FF"/>
<path d="M51.0679 26.5523L56.599 26.0177C56.9319 27.8634 57.604 29.219 58.6155 30.0845C59.6398 30.95 61.0161 31.3828 62.7446 31.3828C64.5755 31.3828 65.9518 31.0009 66.8737 30.2372C67.8083 29.4608 68.2756 28.5571 68.2756 27.5261C68.2756 26.8642 68.0772 26.3041 67.6803 25.8459C67.2962 25.375 66.6176 24.9676 65.6445 24.624C64.9788 24.3949 63.4616 23.9876 61.0929 23.402C58.0457 22.6511 55.9076 21.7282 54.6785 20.6336C52.95 19.0934 52.0858 17.216 52.0858 15.0012C52.0858 13.5756 52.4891 12.2455 53.2957 11.0109C54.1151 9.76346 55.2866 8.81519 56.8102 8.16604C58.3466 7.51688 60.1967 7.19231 62.3605 7.19231C65.8942 7.19231 68.5509 7.96238 70.3306 9.50253C72.1231 11.0427 73.0641 13.0983 73.1537 15.6695L67.469 15.9177C67.2258 14.4794 66.7008 13.4484 65.8942 12.8247C65.1004 12.1882 63.9033 11.87 62.3029 11.87C60.6512 11.87 59.3581 12.2073 58.4234 12.8819C57.8217 13.3147 57.5208 13.8939 57.5208 14.6194C57.5208 15.2813 57.8025 15.8477 58.3658 16.3186C59.0828 16.9169 60.8241 17.5406 63.5896 18.1897C66.3551 18.8389 68.3973 19.5135 69.716 20.2136C71.0476 20.9009 72.0846 21.8492 72.8272 23.0584C73.5826 24.2548 73.9603 25.7377 73.9603 27.507C73.9603 29.1108 73.5122 30.6127 72.616 32.0129C71.7198 33.413 70.4522 34.4567 68.8134 35.1441C67.1745 35.8187 65.1324 36.156 62.687 36.156C59.1276 36.156 56.3941 35.3414 54.4864 33.7121C52.5787 32.0701 51.4392 29.6835 51.0679 26.5523Z" fill="#3B65A1"/>
<path d="M88.0568 15.3831V19.6599H84.3695V27.8316C84.3695 29.4863 84.4015 30.4536 84.4655 30.7337C84.5423 31.0009 84.7024 31.2237 84.9456 31.4019C85.2017 31.5801 85.509 31.6692 85.8675 31.6692C86.3668 31.6692 87.0902 31.4974 88.0376 31.1537L88.4986 35.3159C87.2438 35.8505 85.8227 36.1178 84.235 36.1178C83.262 36.1178 82.385 35.9587 81.6039 35.6405C80.8229 35.3095 80.2468 34.8895 79.8755 34.3804C79.517 33.8585 79.2673 33.1584 79.1265 32.2802C79.0113 31.6565 78.9537 30.3963 78.9537 28.4998V19.6599H76.4762V15.3831H78.9537V11.3545L84.3695 8.22332V15.3831H88.0568Z" fill="#3B65A1"/>
<path d="M96.968 35.6596H91.5714V15.3831H96.5839V18.2661C97.4417 16.9041 98.2099 16.0068 98.8885 15.574C99.5799 15.1412 100.361 14.9249 101.232 14.9249C102.461 14.9249 103.645 15.2622 104.784 15.9368L103.114 20.6145C102.205 20.029 101.36 19.7362 100.579 19.7362C99.8231 19.7362 99.183 19.9463 98.658 20.3663C98.1331 20.7736 97.717 21.5182 97.4097 22.6001C97.1152 23.6821 96.968 25.9477 96.968 29.3972V35.6596Z" fill="#3B65A1"/>
<path d="M155.223 21.3782L149.903 22.3328C149.724 21.2764 149.314 20.4809 148.674 19.9463C148.047 19.4117 147.227 19.1444 146.216 19.1444C144.871 19.1444 143.796 19.609 142.989 20.5381C142.195 21.4546 141.798 22.9947 141.798 25.1586C141.798 27.5643 142.202 29.2635 143.008 30.2563C143.828 31.2492 144.922 31.7456 146.292 31.7456C147.317 31.7456 148.155 31.4592 148.808 30.8864C149.461 30.3009 149.922 29.3017 150.191 27.8888L155.492 28.7862C154.941 31.2046 153.885 33.0311 152.323 34.2658C150.761 35.5005 148.667 36.1178 146.043 36.1178C143.06 36.1178 140.678 35.1823 138.898 33.3112C137.132 31.4401 136.248 28.8498 136.248 25.5404C136.248 22.1928 137.138 19.5899 138.918 17.7315C140.697 15.8604 143.104 14.9249 146.139 14.9249C148.623 14.9249 150.594 15.4595 152.054 16.5287C153.526 17.5851 154.583 19.2016 155.223 21.3782Z" fill="#3B65A1"/>
<path d="M159.141 35.6596V7.66963H164.537V22.5238L170.856 15.3831H177.501L170.529 22.7911L178 35.6596H172.181L167.053 26.5523L164.537 29.168V35.6596H159.141Z" fill="#3B65A1"/>
<path d="M44.2589 22C44.2589 34.1503 34.3512 44 22.1294 44C9.90768 44 0 34.1503 0 22C0 9.84974 9.90768 0 22.1294 0C34.3512 0 44.2589 9.84974 44.2589 22Z" fill="#3B65A1"/>
<path d="M10.034 27.3839L16.4799 26.4068C16.7542 27.649 17.3104 28.5958 18.1485 29.2473C18.9866 29.8835 20.1599 30.2017 21.6685 30.2017C23.3295 30.2017 24.5791 29.8987 25.4172 29.2927C25.981 28.8685 26.2629 28.3004 26.2629 27.5884C26.2629 27.1036 26.1105 26.7022 25.8058 26.3841C25.4857 26.0811 24.7695 25.8008 23.6571 25.5433C18.4761 24.4071 15.1922 23.3694 13.8055 22.4301C11.8855 21.1273 10.9255 19.3169 10.9255 16.9991C10.9255 14.9085 11.756 13.1512 13.417 11.7272C15.0779 10.3031 17.6532 9.59112 21.1428 9.59112C24.4648 9.59112 26.9334 10.1289 28.5487 11.2045C30.1639 12.2801 31.2763 13.8708 31.8859 15.9765L25.8286 17.09C25.5696 16.1507 25.0743 15.4312 24.3429 14.9312C23.6267 14.4313 22.5981 14.1813 21.2571 14.1813C19.5656 14.1813 18.3542 14.4162 17.6228 14.8858C17.1351 15.2191 16.8913 15.6508 16.8913 16.181C16.8913 16.6355 17.1046 17.0218 17.5313 17.34C18.1104 17.7641 20.1066 18.3625 23.52 19.1351C26.9486 19.9078 29.3411 20.8546 30.6973 21.9756C32.0382 23.1118 32.7087 24.6949 32.7087 26.7249C32.7087 28.9367 31.7792 30.8379 29.9201 32.4286C28.061 34.0193 25.3105 34.8146 21.6685 34.8146C18.3618 34.8146 15.7408 34.148 13.8055 32.8149C11.8855 31.4818 10.6283 29.6714 10.034 27.3839Z" fill="#EEF5FF"/>
</svg>
